<svg width="25" height="25" viewBox="0 0 25 25" fill="none" xmlns="http://www.w3.org/2000/svg">
<path d="M4.57288 6.19806C4.99556 5.76347 5.50161 5.41866 6.06072 5.18428C6.61983 4.94991 7.22049 4.83078 7.82673 4.83405C8.43296 4.83732 9.0323 4.96291 9.58885 5.2033C10.1454 5.44369 10.6477 5.79393 11.0657 6.23306L12.2095 7.42084L13.3533 6.23406C13.7712 5.79493 14.2735 5.44469 14.8301 5.2043C15.3866 4.96391 15.986 4.83832 16.5922 4.83505C17.1985 4.83178 17.7991 4.9509 18.3582 5.18528C18.9173 5.41966 19.4234 5.76447 19.8461 6.19906C21.6487 8.03173 21.6637 11.0182 19.8801 12.8698L12.2095 20.8314L4.53888 12.8688C2.75521 11.0172 2.77021 8.03073 4.57288 6.19806Z" stroke="black" stroke-width="1.5"/>
</svg>
