<svg width="25" height="25" viewBox="0 0 25 25" fill="none" xmlns="http://www.w3.org/2000/svg">
<path d="M4.57288 5.69904C4.99556 5.26445 5.50161 4.91964 6.06072 4.68526C6.61983 4.45088 7.22049 4.33176 7.82673 4.33503C8.43296 4.33829 9.0323 4.46388 9.58885 4.70427C10.1454 4.94467 10.6477 5.29491 11.0657 5.73403L12.2095 6.92182L13.3533 5.73503C13.7712 5.29591 14.2735 4.94567 14.8301 4.70527C15.3866 4.46488 15.986 4.33929 16.5922 4.33603C17.1985 4.33276 17.7991 4.45188 18.3582 4.68626C18.9173 4.92064 19.4234 5.26545 19.8461 5.70004C21.6487 7.5327 21.6637 10.5192 19.8801 12.3708L12.2095 20.3324L4.53888 12.3698C2.75521 10.5182 2.77021 7.5317 4.57288 5.69904Z" stroke="black" stroke-width="1.5"/>
</svg>
