<svg width="25" height="25" viewBox="0 0 25 25" fill="none" xmlns="http://www.w3.org/2000/svg">
<path d="M7.8421 6.40833C7.8421 7.35154 7.21063 8.16387 6.06358 8.16387C4.98548 8.16387 4.28906 7.39851 4.28906 6.45529C4.28906 5.4871 4.9645 4.63281 6.06558 4.63281C7.16666 4.63281 7.82012 5.44014 7.8421 6.40833ZM4.28906 20.6195V9.07311H7.8421V20.6185L4.28906 20.6195ZM9.61762 13.0208C9.61762 11.649 9.57266 10.5019 9.52769 9.51174H12.719L12.8779 11.0415H12.9448C13.3945 10.3221 14.4965 9.26595 16.34 9.26595C18.5881 9.26595 20.2757 10.7707 20.2757 14.01V20.6195H16.7227V14.5246C16.7227 13.1087 16.1841 12.0286 14.9472 12.0286C14.004 12.0286 13.5314 12.793 13.2836 13.4225C13.1936 13.6473 13.1707 13.962 13.1707 14.2778V20.6175H9.61762V13.0188V13.0208Z" fill="black"/>
</svg>
