<svg width="25" height="25" viewBox="0 0 25 25" fill="none" xmlns="http://www.w3.org/2000/svg">
<path d="M4.92346 5.66974C5.34615 5.23515 5.8522 4.89034 6.41131 4.65596C6.97041 4.42158 7.57107 4.30246 8.17731 4.30573C8.78355 4.309 9.38289 4.43459 9.93944 4.67498C10.496 4.91537 10.9983 5.26561 11.4163 5.70474L12.5601 6.89252L13.7039 5.70574C14.1218 5.26661 14.6241 4.91637 15.1807 4.67598C15.7372 4.43559 16.3366 4.31 16.9428 4.30673C17.549 4.30346 18.1497 4.42258 18.7088 4.65696C19.2679 4.89134 19.774 5.23615 20.1967 5.67074C21.9993 7.50341 22.0143 10.4899 20.2307 12.3415L12.5601 20.3031L4.88947 12.3405C3.10579 10.4889 3.12079 7.50241 4.92346 5.66974Z" stroke="black" stroke-width="1.5"/>
</svg>
