<svg width="25" height="25" viewBox="0 0 25 25" fill="none" xmlns="http://www.w3.org/2000/svg">
<path d="M4.92346 6.16974C5.34615 5.73515 5.8522 5.39034 6.41131 5.15596C6.97041 4.92158 7.57107 4.80246 8.17731 4.80573C8.78355 4.809 9.38289 4.93459 9.93944 5.17498C10.496 5.41537 10.9983 5.76561 11.4163 6.20474L12.5601 7.39252L13.7039 6.20574C14.1218 5.76661 14.6241 5.41637 15.1807 5.17598C15.7372 4.93559 16.3366 4.81 16.9428 4.80673C17.549 4.80346 18.1497 4.92258 18.7088 5.15696C19.2679 5.39134 19.774 5.73615 20.1967 6.17074C21.9993 8.00341 22.0143 10.9899 20.2307 12.8415L12.5601 20.8031L4.88947 12.8405C3.10579 10.9889 3.12079 8.00241 4.92346 6.16974Z" stroke="black" stroke-width="1.5"/>
</svg>
