<svg width="25" height="25" viewBox="0 0 25 25" fill="none" xmlns="http://www.w3.org/2000/svg">
<path d="M4.92346 5.58869C5.34615 5.1541 5.8522 4.80929 6.41131 4.57491C6.97041 4.34053 7.57107 4.22141 8.17731 4.22467C8.78355 4.22794 9.38289 4.35353 9.93944 4.59392C10.496 4.83431 10.9983 5.18456 11.4163 5.62368L12.5601 6.81146L13.7039 5.62468C14.1218 5.18556 14.6241 4.83531 15.1807 4.59492C15.7372 4.35453 16.3366 4.22894 16.9428 4.22567C17.549 4.22241 18.1497 4.34153 18.7088 4.57591C19.2679 4.81029 19.774 5.1551 20.1967 5.58969C21.9993 7.42235 22.0143 10.4088 20.2307 12.2605L12.5601 20.222L4.88947 12.2595C3.10579 10.4078 3.12079 7.42135 4.92346 5.58869Z" stroke="black" stroke-width="1.5"/>
</svg>
