<svg width="25" height="25" viewBox="0 0 25 25" fill="none" xmlns="http://www.w3.org/2000/svg">
<path d="M5.28332 5.66974C5.70601 5.23515 6.21206 4.89034 6.77117 4.65596C7.33028 4.42158 7.93094 4.30246 8.53717 4.30573C9.14341 4.309 9.74275 4.43459 10.2993 4.67498C10.8559 4.91537 11.3582 5.26561 11.7761 5.70474L12.9199 6.89252L14.0637 5.70574C14.4817 5.26661 14.984 4.91637 15.5405 4.67598C16.0971 4.43559 16.6964 4.31 17.3027 4.30673C17.9089 4.30346 18.5096 4.42258 19.0687 4.65696C19.6278 4.89134 20.1338 5.23615 20.5565 5.67074C22.3592 7.50341 22.3742 10.4899 20.5905 12.3415L12.9199 20.3031L5.24933 12.3405C3.46566 10.4889 3.48066 7.50241 5.28332 5.66974Z" stroke="black" stroke-width="1.5"/>
</svg>
