<svg width="25" height="25" viewBox="0 0 25 25" fill="none" xmlns="http://www.w3.org/2000/svg">
<path d="M12.182 4.42715C11.2545 4.42715 10.365 4.79559 9.70914 5.45142C9.05331 6.10725 8.68487 6.99674 8.68487 7.92423C8.68487 8.85171 9.05331 9.74121 9.70914 10.397C10.365 11.0529 11.2545 11.4213 12.182 11.4213C13.1094 11.4213 13.9989 11.0529 14.6548 10.397C15.3106 9.74121 15.679 8.85171 15.679 7.92423C15.679 6.99674 15.3106 6.10725 14.6548 5.45142C13.9989 4.79559 13.1094 4.42715 12.182 4.42715ZM7.6857 7.92423C7.6857 6.73175 8.15941 5.58811 9.00262 4.7449C9.84584 3.90169 10.9895 3.42798 12.182 3.42798C13.3744 3.42798 14.5181 3.90169 15.3613 4.7449C16.2045 5.58811 16.6782 6.73175 16.6782 7.92423C16.6782 9.11671 16.2045 10.2603 15.3613 11.1036C14.5181 11.9468 13.3744 12.4205 12.182 12.4205C10.9895 12.4205 9.84584 11.9468 9.00262 11.1036C8.15941 10.2603 7.6857 9.11671 7.6857 7.92423ZM7.6857 15.418C6.75822 15.418 5.86872 15.7864 5.21289 16.4423C4.55706 17.0981 4.18862 17.9876 4.18862 18.9151V21.413H3.18945V18.9151C3.18945 17.7226 3.66316 16.5789 4.50637 15.7357C5.34958 14.8925 6.49322 14.4188 7.6857 14.4188H16.6782C17.8707 14.4188 19.0143 14.8925 19.8575 15.7357C20.7007 16.5789 21.1745 17.7226 21.1745 18.9151V21.413H20.1753V18.9151C20.1753 17.9876 19.8068 17.0981 19.151 16.4423C18.4952 15.7864 17.6057 15.418 16.6782 15.418H7.6857Z" fill="black" stroke="black"/>
</svg>
