<svg width="25" height="25" viewBox="0 0 25 25" fill="none" xmlns="http://www.w3.org/2000/svg">
<path d="M5.28332 5.69904C5.70601 5.26445 6.21206 4.91964 6.77117 4.68526C7.33028 4.45088 7.93094 4.33176 8.53717 4.33503C9.14341 4.33829 9.74275 4.46388 10.2993 4.70427C10.8559 4.94467 11.3582 5.29491 11.7761 5.73403L12.9199 6.92182L14.0637 5.73503C14.4817 5.29591 14.984 4.94567 15.5405 4.70527C16.0971 4.46488 16.6964 4.33929 17.3027 4.33603C17.9089 4.33276 18.5096 4.45188 19.0687 4.68626C19.6278 4.92064 20.1338 5.26545 20.5565 5.70004C22.3592 7.5327 22.3742 10.5192 20.5905 12.3708L12.9199 20.3324L5.24933 12.3698C3.46566 10.5182 3.48066 7.5317 5.28332 5.69904Z" stroke="black" stroke-width="1.5"/>
</svg>
