<svg width="25" height="25" viewBox="0 0 25 25" fill="none" xmlns="http://www.w3.org/2000/svg">
<path d="M4.62854 5.48322C5.05123 5.04863 5.55728 4.70382 6.11638 4.46944C6.67549 4.23506 7.27615 4.11594 7.88239 4.11921C8.48863 4.12247 9.08797 4.24806 9.64452 4.48845C10.2011 4.72885 10.7034 5.07909 11.1213 5.51821L12.2651 6.706L13.4089 5.51921C13.8269 5.08009 14.3292 4.72984 14.8858 4.48945C15.4423 4.24906 16.0417 4.12347 16.6479 4.12021C17.2541 4.11694 17.8548 4.23606 18.4139 4.47044C18.973 4.70482 19.4791 5.04963 19.9017 5.48422C21.7044 7.31688 21.7194 10.3033 19.9357 12.155L12.2651 20.1165L4.59455 12.154C2.81087 10.3023 2.82587 7.31588 4.62854 5.48322Z" stroke="black" stroke-width="1.5"/>
</svg>
