<svg width="25" height="25" viewBox="0 0 25 25" fill="none" xmlns="http://www.w3.org/2000/svg">
<path d="M4.57288 5.61847C4.99556 5.18388 5.50161 4.83907 6.06072 4.60469C6.61983 4.37032 7.22049 4.25119 7.82673 4.25446C8.43296 4.25773 9.0323 4.38332 9.58885 4.62371C10.1454 4.8641 10.6477 5.21435 11.0657 5.65347L12.2095 6.84125L13.3533 5.65447C13.7712 5.21534 14.2735 4.8651 14.8301 4.62471C15.3866 4.38432 15.986 4.25873 16.5922 4.25546C17.1985 4.25219 17.7991 4.37132 18.3582 4.60569C18.9173 4.84007 19.4234 5.18488 19.8461 5.61947C21.6487 7.45214 21.6637 10.4386 19.8801 12.2902L12.2095 20.2518L4.53888 12.2893C2.75521 10.4376 2.77021 7.45114 4.57288 5.61847Z" stroke="black" stroke-width="1.5"/>
</svg>
