<svg width="17" height="17" viewBox="0 0 17 17" fill="none" xmlns="http://www.w3.org/2000/svg">
<g clip-path="url(#clip0_16_616)">
<mask id="mask0_16_616" style="mask-type:luminance" maskUnits="userSpaceOnUse" x="0" y="0" width="17" height="17">
<path d="M8.25244 16.6504C12.6707 16.6504 16.2524 13.0687 16.2524 8.65039C16.2524 4.23211 12.6707 0.650391 8.25244 0.650391C3.83416 0.650391 0.252441 4.23211 0.252441 8.65039C0.252441 13.0687 3.83416 16.6504 8.25244 16.6504Z" fill="white"/>
</mask>
<g mask="url(#mask0_16_616)">
<path d="M16.2524 16.6504H0.252441V8.62539L7.78369 8.18164L8.22744 0.650391H16.2524V16.6504Z" fill="#455BA4"/>
</g>
<mask id="mask1_16_616" style="mask-type:luminance" maskUnits="userSpaceOnUse" x="0" y="0" width="17" height="17">
<path d="M8.25244 16.6504C12.6707 16.6504 16.2524 13.0687 16.2524 8.65039C16.2524 4.23211 12.6707 0.650391 8.25244 0.650391C3.83416 0.650391 0.252441 4.23211 0.252441 8.65039C0.252441 13.0687 3.83416 16.6504 8.25244 16.6504Z" fill="white"/>
</mask>
<g mask="url(#mask1_16_616)">
<path fill-rule="evenodd" clip-rule="evenodd" d="M0.252441 0.650391H8.25244V8.66289H0.252441V0.650391Z" fill="#455BA4"/>
</g>
<mask id="mask2_16_616" style="mask-type:luminance" maskUnits="userSpaceOnUse" x="0" y="0" width="17" height="17">
<path d="M8.25244 16.6504C12.6707 16.6504 16.2524 13.0687 16.2524 8.65039C16.2524 4.23211 12.6707 0.650391 8.25244 0.650391C3.83416 0.650391 0.252441 4.23211 0.252441 8.65039C0.252441 13.0687 3.83416 16.6504 8.25244 16.6504Z" fill="white"/>
</mask>
<g mask="url(#mask2_16_616)">
<path d="M8.25244 0.666016L8.23682 0.650391H7.39619L4.25869 3.78477L1.12432 0.650391H0.252441V1.53477L3.38057 4.66289L0.252441 7.79414V8.65039H1.15244L4.25869 5.54102L7.36807 8.65039H8.25244V7.77852L5.13682 4.66289L8.25244 1.55039V0.666016Z" fill="#F6F7F8"/>
</g>
<mask id="mask3_16_616" style="mask-type:luminance" maskUnits="userSpaceOnUse" x="0" y="0" width="17" height="17">
<path d="M8.25244 16.6504C12.6707 16.6504 16.2524 13.0687 16.2524 8.65039C16.2524 4.23211 12.6707 0.650391 8.25244 0.650391C3.83416 0.650391 0.252441 4.23211 0.252441 8.65039C0.252441 13.0687 3.83416 16.6504 8.25244 16.6504Z" fill="white"/>
</mask>
<g mask="url(#mask3_16_616)">
<path d="M7.94307 8.65039H8.25244V8.06602L4.71494 4.52852L8.25244 0.987891V0.650391H7.69307L4.12432 4.21602L0.558691 0.650391H0.252441V1.24102L3.80869 4.80039L0.252441 8.35664V8.65039H0.846191L4.39619 5.10039L7.94307 8.65039Z" fill="#EA6568"/>
</g>
<mask id="mask4_16_616" style="mask-type:luminance" maskUnits="userSpaceOnUse" x="0" y="0" width="17" height="17">
<path d="M8.25244 16.6504C12.6707 16.6504 16.2524 13.0687 16.2524 8.65039C16.2524 4.23211 12.6707 0.650391 8.25244 0.650391C3.83416 0.650391 0.252441 4.23211 0.252441 8.65039C0.252441 13.0687 3.83416 16.6504 8.25244 16.6504Z" fill="white"/>
</mask>
<g mask="url(#mask4_16_616)">
<path fill-rule="evenodd" clip-rule="evenodd" d="M8.25244 3.69688H5.21182V0.65625H3.29307V3.69688H0.252441V5.61562H3.29307V8.65625H5.21182V5.61562H8.25244V3.69688Z" fill="#F6F7F8"/>
</g>
<mask id="mask5_16_616" style="mask-type:luminance" maskUnits="userSpaceOnUse" x="0" y="0" width="17" height="17">
<path d="M8.25244 16.6504C12.6707 16.6504 16.2524 13.0687 16.2524 8.65039C16.2524 4.23211 12.6707 0.650391 8.25244 0.650391C3.83416 0.650391 0.252441 4.23211 0.252441 8.65039C0.252441 13.0687 3.83416 16.6504 8.25244 16.6504Z" fill="white"/>
</mask>
<g mask="url(#mask5_16_616)">
<path fill-rule="evenodd" clip-rule="evenodd" d="M8.25244 4.03438H4.87432V0.65625H3.63057V4.03438H0.252441V5.27813H3.63057V8.65625H4.87432V5.27813H8.25244V4.03438Z" fill="#EA6568"/>
</g>
<mask id="mask6_16_616" style="mask-type:luminance" maskUnits="userSpaceOnUse" x="0" y="0" width="17" height="17">
<path d="M8.25244 16.6504C12.6707 16.6504 16.2524 13.0687 16.2524 8.65039C16.2524 4.23211 12.6707 0.650391 8.25244 0.650391C3.83416 0.650391 0.252441 4.23211 0.252441 8.65039C0.252441 13.0687 3.83416 16.6504 8.25244 16.6504Z" fill="white"/>
</mask>
<g mask="url(#mask6_16_616)">
<path d="M4.26489 10.1035L4.54302 10.9723L4.56802 10.9848L5.42114 10.6598L5.44302 10.6879L4.93677 11.4473L4.94302 11.4754L5.72739 11.941L5.71802 11.9723L4.81177 12.0535L4.79302 12.0723L4.91802 12.9785L4.88677 12.991L4.25864 12.3316H4.23364L3.60552 12.991L3.57427 12.9785L3.69927 12.0723L3.68052 12.0535L2.77114 11.9723L2.76489 11.941L3.54927 11.4754L3.55552 11.4473L3.04927 10.6879L3.07114 10.6598L3.92427 10.9848L3.94927 10.9723L4.22739 10.1035H4.26489ZM12.0024 12.7754L12.2524 12.4004L12.2274 12.3691L11.8055 12.5285L11.7774 12.516L11.6399 12.0879H11.5993L11.4618 12.516L11.4336 12.5285L11.0118 12.3691L10.9868 12.4004L11.2368 12.7754L11.2305 12.8035L10.843 13.0348C10.8243 13.0441 10.8305 13.0723 10.8524 13.0723L11.3024 13.1098L11.3211 13.1348L11.2586 13.5816C11.2555 13.6004 11.2805 13.6129 11.293 13.5973L11.6024 13.2723H11.6336L11.943 13.5973C11.9555 13.6129 11.9805 13.6004 11.9774 13.5816L11.9149 13.1348L11.9336 13.1098L12.3805 13.0723C12.3993 13.0691 12.4055 13.0441 12.3899 13.0348L12.0024 12.8035V12.7754ZM10.418 8.05352L10.668 7.67852L10.643 7.64727L10.2211 7.80664L10.193 7.79414L10.0555 7.36602H10.0149L9.87739 7.79414L9.84927 7.80664L9.42739 7.64727L9.40239 7.67852L9.65239 8.05352L9.64614 8.08164L9.25864 8.31289C9.23989 8.32227 9.24614 8.35039 9.26802 8.35039L9.71802 8.38789L9.73677 8.41289L9.67427 8.85977C9.67114 8.87852 9.69614 8.89102 9.70864 8.87539L10.018 8.55039H10.0493L10.3586 8.87539C10.3711 8.89102 10.3961 8.87852 10.393 8.85977L10.3305 8.41289L10.3493 8.38789L10.7961 8.35039C10.8149 8.34727 10.8211 8.32227 10.8055 8.31289L10.418 8.08164V8.05352ZM11.3243 5.18164L11.2618 5.62852C11.2586 5.64727 11.2836 5.65977 11.2961 5.64414L11.6055 5.31914H11.6368L11.9461 5.64414C11.9586 5.65977 11.9836 5.64727 11.9805 5.62852L11.918 5.18164L11.9368 5.15664L12.3836 5.11914C12.4024 5.11602 12.4086 5.09102 12.393 5.08164L12.0055 4.85039L11.9993 4.82227L12.2493 4.44727L12.2243 4.41602L11.8024 4.57539L11.7743 4.56289L11.6368 4.13477H11.5961L11.4586 4.56289L11.4305 4.57539L11.0086 4.41602L10.9836 4.44727L11.2336 4.82227L11.2274 4.85039L10.8399 5.08164C10.8211 5.09102 10.8274 5.11914 10.8493 5.11914L11.2993 5.15664L11.3243 5.18164ZM15.0493 7.51602L14.6618 7.28477L14.6555 7.25664L14.9055 6.88164L14.8805 6.85039L14.4586 7.00977L14.4305 6.99727L14.293 6.56914H14.2524L14.1149 6.99727L14.0868 7.00977L13.6649 6.85039L13.6399 6.88164L13.8899 7.25664L13.8836 7.28477L13.4961 7.51602C13.4774 7.52539 13.4836 7.55352 13.5055 7.55352L13.9555 7.59102L13.9743 7.61602L13.9118 8.06289C13.9086 8.08164 13.9336 8.09414 13.9461 8.07852L14.2555 7.75352H14.2868L14.5961 8.07852C14.6086 8.09414 14.6336 8.08164 14.6305 8.06289L14.568 7.61602L14.5868 7.59102L15.0368 7.55352C15.0586 7.55352 15.0649 7.52539 15.0493 7.51602ZM12.9399 9.20664L12.8336 8.94727H12.7961L12.6899 9.20664L12.6711 9.21914L12.393 9.24102L12.3805 9.27539L12.5961 9.45664L12.6024 9.47852L12.5336 9.75039L12.5649 9.77227L12.8055 9.62539H12.8274L13.0649 9.77227L13.0961 9.75039L13.0274 9.47852L13.0336 9.45664L13.2493 9.27539L13.2368 9.24102L12.9586 9.21914L12.9399 9.20664Z" fill="white"/>
</g>
</g>
<defs>
<clipPath id="clip0_16_616">
<rect width="16" height="16" fill="white" transform="translate(0.252441 0.650391)"/>
</clipPath>
</defs>
</svg>
