<svg width="25" height="25" viewBox="0 0 25 25" fill="none" xmlns="http://www.w3.org/2000/svg">
<path fill-rule="evenodd" clip-rule="evenodd" d="M13.0636 8.216C12.4818 8.11624 11.8834 8.22565 11.3744 8.52486C10.8655 8.82406 10.4789 9.29375 10.2831 9.8507L10.1172 10.3226L9.17334 9.99068L9.33931 9.51876C9.61336 8.739 10.1546 8.08141 10.8671 7.66249C11.5795 7.24357 12.4173 7.09036 13.2319 7.23C14.0466 7.36965 14.7855 7.79313 15.3178 8.42543C15.8501 9.05773 16.1414 9.85803 16.1401 10.6845C16.1401 11.9503 15.1972 12.8302 14.4174 13.3501C13.9249 13.675 13.3961 13.9411 12.8417 14.1429L12.8117 14.1529L12.8037 14.1569H12.8007L12.7997 14.1579L12.3248 14.3159L12.0088 13.3681L12.4817 13.2101L12.4867 13.2081L12.5067 13.2011L12.5917 13.1701C13.0381 12.9998 13.4646 12.7812 13.8635 12.5182C14.5833 12.0383 15.1402 11.4184 15.1402 10.6845C15.1412 10.0941 14.9333 9.52244 14.5532 9.07064C14.1732 8.61884 13.6455 8.31609 13.0636 8.216ZM12.7207 16.6834V18.1832H11.7209V16.6834H12.7207Z" fill="black"/>
</svg>
