<svg width="25" height="25" viewBox="0 0 25 25" fill="none" xmlns="http://www.w3.org/2000/svg">
<path d="M4.92346 6.13849C5.34615 5.7039 5.8522 5.35909 6.41131 5.12471C6.97041 4.89033 7.57107 4.77121 8.17731 4.77448C8.78355 4.77775 9.38289 4.90334 9.93944 5.14373C10.496 5.38412 10.9983 5.73436 11.4163 6.17349L12.5601 7.36127L13.7039 6.17449C14.1218 5.73536 14.6241 5.38512 15.1807 5.14473C15.7372 4.90434 16.3366 4.77875 16.9428 4.77548C17.549 4.77221 18.1497 4.89133 18.7088 5.12571C19.2679 5.36009 19.774 5.7049 20.1967 6.13949C21.9993 7.97216 22.0143 10.9586 20.2307 12.8103L12.5601 20.7718L4.88947 12.8093C3.10579 10.9576 3.12079 7.97116 4.92346 6.13849Z" stroke="black" stroke-width="1.5"/>
</svg>
