<svg width="25" height="25" viewBox="0 0 25 25" fill="none" xmlns="http://www.w3.org/2000/svg">
<path d="M4.57288 6.13849C4.99556 5.7039 5.50161 5.35909 6.06072 5.12471C6.61983 4.89033 7.22049 4.77121 7.82673 4.77448C8.43296 4.77775 9.0323 4.90334 9.58885 5.14373C10.1454 5.38412 10.6477 5.73436 11.0657 6.17349L12.2095 7.36127L13.3533 6.17449C13.7712 5.73536 14.2735 5.38512 14.8301 5.14473C15.3866 4.90434 15.986 4.77875 16.5922 4.77548C17.1985 4.77221 17.7991 4.89133 18.3582 5.12571C18.9173 5.36009 19.4234 5.7049 19.8461 6.13949C21.6487 7.97216 21.6637 10.9586 19.8801 12.8103L12.2095 20.7718L4.53888 12.8093C2.75521 10.9576 2.77021 7.97116 4.57288 6.13849Z" stroke="black" stroke-width="1.5"/>
</svg>
