<svg width="25" height="25" viewBox="0 0 25 25" fill="none" xmlns="http://www.w3.org/2000/svg">
<path d="M5.28332 5.61847C5.70601 5.18388 6.21206 4.83907 6.77117 4.60469C7.33028 4.37032 7.93094 4.25119 8.53717 4.25446C9.14341 4.25773 9.74275 4.38332 10.2993 4.62371C10.8559 4.8641 11.3582 5.21435 11.7761 5.65347L12.9199 6.84125L14.0637 5.65447C14.4817 5.21534 14.984 4.8651 15.5405 4.62471C16.0971 4.38432 16.6964 4.25873 17.3027 4.25546C17.9089 4.25219 18.5096 4.37132 19.0687 4.60569C19.6278 4.84007 20.1338 5.18488 20.5565 5.61947C22.3592 7.45214 22.3742 10.4386 20.5905 12.2902L12.9199 20.2518L5.24933 12.2893C3.46566 10.4376 3.48066 7.45114 5.28332 5.61847Z" stroke="black" stroke-width="1.5"/>
</svg>
