<svg width="25" height="25" viewBox="0 0 25 25" fill="none" xmlns="http://www.w3.org/2000/svg">
<path d="M5.28332 6.13849C5.70601 5.7039 6.21206 5.35909 6.77117 5.12471C7.33028 4.89033 7.93094 4.77121 8.53717 4.77448C9.14341 4.77775 9.74275 4.90334 10.2993 5.14373C10.8559 5.38412 11.3582 5.73436 11.7761 6.17349L12.9199 7.36127L14.0637 6.17449C14.4817 5.73536 14.984 5.38512 15.5405 5.14473C16.0971 4.90434 16.6964 4.77875 17.3027 4.77548C17.9089 4.77221 18.5096 4.89133 19.0687 5.12571C19.6278 5.36009 20.1338 5.7049 20.5565 6.13949C22.3592 7.97216 22.3742 10.9586 20.5905 12.8103L12.9199 20.7718L5.24933 12.8093C3.46566 10.9576 3.48066 7.97116 5.28332 6.13849Z" stroke="black" stroke-width="1.5"/>
</svg>
