<svg width="25" height="25" viewBox="0 0 25 25" fill="none" xmlns="http://www.w3.org/2000/svg">
<path d="M4.57288 5.58869C4.99556 5.1541 5.50161 4.80929 6.06072 4.57491C6.61983 4.34053 7.22049 4.22141 7.82673 4.22467C8.43296 4.22794 9.0323 4.35353 9.58885 4.59392C10.1454 4.83431 10.6477 5.18456 11.0657 5.62368L12.2095 6.81146L13.3533 5.62468C13.7712 5.18556 14.2735 4.83531 14.8301 4.59492C15.3866 4.35453 15.986 4.22894 16.5922 4.22567C17.1985 4.22241 17.7991 4.34153 18.3582 4.57591C18.9173 4.81029 19.4234 5.1551 19.8461 5.58969C21.6487 7.42235 21.6637 10.4088 19.8801 12.2605L12.2095 20.222L4.53888 12.2595C2.75521 10.4078 2.77021 7.42135 4.57288 5.58869Z" stroke="black" stroke-width="1.5"/>
</svg>
