<svg width="25" height="25" viewBox="0 0 25 25" fill="none" xmlns="http://www.w3.org/2000/svg">
<path d="M5.28332 5.58869C5.70601 5.1541 6.21206 4.80929 6.77117 4.57491C7.33028 4.34053 7.93094 4.22141 8.53717 4.22467C9.14341 4.22794 9.74275 4.35353 10.2993 4.59392C10.8559 4.83431 11.3582 5.18456 11.7761 5.62368L12.9199 6.81146L14.0637 5.62468C14.4817 5.18556 14.984 4.83531 15.5405 4.59492C16.0971 4.35453 16.6964 4.22894 17.3027 4.22567C17.9089 4.22241 18.5096 4.34153 19.0687 4.57591C19.6278 4.81029 20.1338 5.1551 20.5565 5.58969C22.3592 7.42235 22.3742 10.4088 20.5905 12.2605L12.9199 20.222L5.24933 12.2595C3.46566 10.4078 3.48066 7.42135 5.28332 5.58869Z" stroke="black" stroke-width="1.5"/>
</svg>
