<svg width="25" height="25" viewBox="0 0 25 25" fill="none" xmlns="http://www.w3.org/2000/svg">
<path d="M4.63879 5.48322C5.06148 5.04863 5.56753 4.70382 6.12664 4.46944C6.68575 4.23506 7.28641 4.11594 7.89264 4.11921C8.49888 4.12247 9.09822 4.24806 9.65477 4.48845C10.2113 4.72885 10.7136 5.07909 11.1316 5.51821L12.2754 6.706L13.4192 5.51921C13.8372 5.08009 14.3395 4.72984 14.896 4.48945C15.4526 4.24906 16.0519 4.12347 16.6581 4.12021C17.2644 4.11694 17.865 4.23606 18.4241 4.47044C18.9833 4.70482 19.4893 5.04963 19.912 5.48422C21.7147 7.31688 21.7297 10.3033 19.946 12.155L12.2754 20.1165L4.6048 12.154C2.82113 10.3023 2.83612 7.31588 4.63879 5.48322Z" stroke="black" stroke-width="1.5"/>
</svg>
