<svg width="25" height="25" viewBox="0 0 25 25" fill="none" xmlns="http://www.w3.org/2000/svg">
<path d="M4.92346 6.08869C5.34615 5.6541 5.8522 5.30929 6.41131 5.07491C6.97041 4.84053 7.57107 4.72141 8.17731 4.72467C8.78355 4.72794 9.38289 4.85353 9.93944 5.09392C10.496 5.33431 10.9983 5.68456 11.4163 6.12368L12.5601 7.31146L13.7039 6.12468C14.1218 5.68556 14.6241 5.33531 15.1807 5.09492C15.7372 4.85453 16.3366 4.72894 16.9428 4.72567C17.549 4.72241 18.1497 4.84153 18.7088 5.07591C19.2679 5.31029 19.774 5.6551 20.1967 6.08969C21.9993 7.92235 22.0143 10.9088 20.2307 12.7605L12.5601 20.722L4.88947 12.7595C3.10579 10.9078 3.12079 7.92135 4.92346 6.08869Z" stroke="black" stroke-width="1.5"/>
</svg>
