<svg width="25" height="25" viewBox="0 0 25 25" fill="none" xmlns="http://www.w3.org/2000/svg">
<path d="M4.92346 5.69806C5.34615 5.26347 5.8522 4.91866 6.41131 4.68428C6.97041 4.44991 7.57107 4.33078 8.17731 4.33405C8.78355 4.33732 9.38289 4.46291 9.93944 4.7033C10.496 4.94369 10.9983 5.29393 11.4163 5.73306L12.5601 6.92084L13.7039 5.73406C14.1218 5.29493 14.6241 4.94469 15.1807 4.7043C15.7372 4.46391 16.3366 4.33832 16.9428 4.33505C17.549 4.33178 18.1497 4.4509 18.7088 4.68528C19.2679 4.91966 19.774 5.26447 20.1967 5.69906C21.9993 7.53173 22.0143 10.5182 20.2307 12.3698L12.5601 20.3314L4.88947 12.3688C3.10579 10.5172 3.12079 7.53073 4.92346 5.69806Z" stroke="black" stroke-width="1.5"/>
</svg>
