<svg width="25" height="25" viewBox="0 0 25 25" fill="none" xmlns="http://www.w3.org/2000/svg">
<path d="M16.0595 6.22555C15.662 6.22555 15.2808 6.38345 14.9997 6.66452C14.7186 6.94559 14.5607 7.3268 14.5607 7.7243C14.5607 8.12179 14.7186 8.503 14.9997 8.78407C15.2808 9.06514 15.662 9.22305 16.0595 9.22305C16.457 9.22305 16.8382 9.06514 17.1193 8.78407C17.4003 8.503 17.5582 8.12179 17.5582 7.7243C17.5582 7.3268 17.4003 6.94559 17.1193 6.66452C16.8382 6.38345 16.457 6.22555 16.0595 6.22555ZM13.6115 7.22471C13.7262 6.66004 14.0325 6.15237 14.4787 5.78772C14.9248 5.42308 15.4833 5.22388 16.0595 5.22388C16.6357 5.22388 17.1942 5.42308 17.6403 5.78772C18.0864 6.15237 18.3928 6.66004 18.5074 7.22471H21.0553V8.22388H18.5074C18.3928 8.78855 18.0864 9.29622 17.6403 9.66087C17.1942 10.0255 16.6357 10.2247 16.0595 10.2247C15.4833 10.2247 14.9248 10.0255 14.4787 9.66087C14.0325 9.29622 13.7262 8.78855 13.6115 8.22388H3.07031V7.22471H13.6115ZM8.06615 15.218C7.66865 15.218 7.28744 15.376 7.00637 15.657C6.7253 15.9381 6.5674 16.3193 6.5674 16.7168C6.5674 17.1143 6.7253 17.4955 7.00637 17.7766C7.28744 18.0576 7.66865 18.2155 8.06615 18.2155C8.46364 18.2155 8.84485 18.0576 9.12592 17.7766C9.40699 17.4955 9.5649 17.1143 9.5649 16.7168C9.5649 16.3193 9.40699 15.9381 9.12592 15.657C8.84485 15.376 8.46364 15.218 8.06615 15.218ZM5.61819 16.2172C5.73285 15.6525 6.0392 15.1449 6.48534 14.7802C6.93147 14.4156 7.48995 14.2164 8.06615 14.2164C8.64234 14.2164 9.20082 14.4156 9.64696 14.7802C10.0931 15.1449 10.3994 15.6525 10.5141 16.2172H21.0553V17.2164H10.5141C10.3994 17.7811 10.0931 18.2887 9.64696 18.6534C9.20082 19.018 8.64234 19.2172 8.06615 19.2172C7.48995 19.2172 6.93147 19.018 6.48534 18.6534C6.0392 18.2887 5.73285 17.7811 5.61819 17.2164H3.07031V16.2172H5.61819Z" fill="black"/>
</svg>
