<svg width="25" height="25" viewBox="0 0 25 25" fill="none" xmlns="http://www.w3.org/2000/svg">
<path d="M4.57288 5.66877C4.99556 5.23417 5.50161 4.88936 6.06072 4.65499C6.61983 4.42061 7.22049 4.30149 7.82673 4.30475C8.43296 4.30802 9.0323 4.43361 9.58885 4.674C10.1454 4.91439 10.6477 5.26464 11.0657 5.70376L12.2095 6.89154L13.3533 5.70476C13.7712 5.26564 14.2735 4.91539 14.8301 4.675C15.3866 4.43461 15.986 4.30902 16.5922 4.30575C17.1985 4.30249 17.7991 4.42161 18.3582 4.65599C18.9173 4.89036 19.4234 5.23517 19.8461 5.66977C21.6487 7.50243 21.6637 10.4889 19.8801 12.3405L12.2095 20.3021L4.53888 12.3395C2.75521 10.4879 2.77021 7.50143 4.57288 5.66877Z" stroke="black" stroke-width="1.5"/>
</svg>
