<svg width="25" height="25" viewBox="0 0 25 25" fill="none" xmlns="http://www.w3.org/2000/svg">
<path d="M4.92346 5.66877C5.34615 5.23417 5.8522 4.88936 6.41131 4.65499C6.97041 4.42061 7.57107 4.30149 8.17731 4.30475C8.78355 4.30802 9.38289 4.43361 9.93944 4.674C10.496 4.91439 10.9983 5.26464 11.4163 5.70376L12.5601 6.89154L13.7039 5.70476C14.1218 5.26564 14.6241 4.91539 15.1807 4.675C15.7372 4.43461 16.3366 4.30902 16.9428 4.30575C17.549 4.30249 18.1497 4.42161 18.7088 4.65599C19.2679 4.89036 19.774 5.23517 20.1967 5.66977C21.9993 7.50243 22.0143 10.4889 20.2307 12.3405L12.5601 20.3021L4.88947 12.3395C3.10579 10.4879 3.12079 7.50143 4.92346 5.66877Z" stroke="black" stroke-width="1.5"/>
</svg>
