<svg width="25" height="25" viewBox="0 0 25 25" fill="none" xmlns="http://www.w3.org/2000/svg">
<path d="M4.57288 5.66974C4.99556 5.23515 5.50161 4.89034 6.06072 4.65596C6.61983 4.42158 7.22049 4.30246 7.82673 4.30573C8.43296 4.309 9.0323 4.43459 9.58885 4.67498C10.1454 4.91537 10.6477 5.26561 11.0657 5.70474L12.2095 6.89252L13.3533 5.70574C13.7712 5.26661 14.2735 4.91637 14.8301 4.67598C15.3866 4.43559 15.986 4.31 16.5922 4.30673C17.1985 4.30346 17.7991 4.42258 18.3582 4.65696C18.9173 4.89134 19.4234 5.23615 19.8461 5.67074C21.6487 7.50341 21.6637 10.4899 19.8801 12.3415L12.2095 20.3031L4.53888 12.3405C2.75521 10.4889 2.77021 7.50241 4.57288 5.66974Z" stroke="black" stroke-width="1.5"/>
</svg>
