<svg width="25" height="25" viewBox="0 0 25 25" fill="none" xmlns="http://www.w3.org/2000/svg">
<path d="M5.28332 6.16974C5.70601 5.73515 6.21206 5.39034 6.77117 5.15596C7.33028 4.92158 7.93094 4.80246 8.53717 4.80573C9.14341 4.809 9.74275 4.93459 10.2993 5.17498C10.8559 5.41537 11.3582 5.76561 11.7761 6.20474L12.9199 7.39252L14.0637 6.20574C14.4817 5.76661 14.984 5.41637 15.5405 5.17598C16.0971 4.93559 16.6964 4.81 17.3027 4.80673C17.9089 4.80346 18.5096 4.92258 19.0687 5.15696C19.6278 5.39134 20.1338 5.73615 20.5565 6.17074C22.3592 8.00341 22.3742 10.9899 20.5905 12.8415L12.9199 20.8031L5.24933 12.8405C3.46566 10.9889 3.48066 8.00241 5.28332 6.16974Z" stroke="black" stroke-width="1.5"/>
</svg>
