<svg width="25" height="25" viewBox="0 0 25 25" fill="none" xmlns="http://www.w3.org/2000/svg">
<path d="M5.28332 6.19806C5.70601 5.76347 6.21206 5.41866 6.77117 5.18428C7.33028 4.94991 7.93094 4.83078 8.53717 4.83405C9.14341 4.83732 9.74275 4.96291 10.2993 5.2033C10.8559 5.44369 11.3582 5.79393 11.7761 6.23306L12.9199 7.42084L14.0637 6.23406C14.4817 5.79493 14.984 5.44469 15.5405 5.2043C16.0971 4.96391 16.6964 4.83832 17.3027 4.83505C17.9089 4.83178 18.5096 4.9509 19.0687 5.18528C19.6278 5.41966 20.1338 5.76447 20.5565 6.19906C22.3592 8.03173 22.3742 11.0182 20.5905 12.8698L12.9199 20.8314L5.24933 12.8688C3.46566 11.0172 3.48066 8.03073 5.28332 6.19806Z" stroke="black" stroke-width="1.5"/>
</svg>
