<svg width="25" height="25" viewBox="0 0 25 25" fill="none" xmlns="http://www.w3.org/2000/svg">
<path d="M5.28332 5.66877C5.70601 5.23417 6.21206 4.88936 6.77117 4.65499C7.33028 4.42061 7.93094 4.30149 8.53717 4.30475C9.14341 4.30802 9.74275 4.43361 10.2993 4.674C10.8559 4.91439 11.3582 5.26464 11.7761 5.70376L12.9199 6.89154L14.0637 5.70476C14.4817 5.26564 14.984 4.91539 15.5405 4.675C16.0971 4.43461 16.6964 4.30902 17.3027 4.30575C17.9089 4.30249 18.5096 4.42161 19.0687 4.65599C19.6278 4.89036 20.1338 5.23517 20.5565 5.66977C22.3592 7.50243 22.3742 10.4889 20.5905 12.3405L12.9199 20.3021L5.24933 12.3395C3.46566 10.4879 3.48066 7.50143 5.28332 5.66877Z" stroke="black" stroke-width="1.5"/>
</svg>
