<svg width="25" height="25" viewBox="0 0 25 25" fill="none" xmlns="http://www.w3.org/2000/svg">
<path d="M5.28332 6.08869C5.70601 5.6541 6.21206 5.30929 6.77117 5.07491C7.33028 4.84053 7.93094 4.72141 8.53717 4.72467C9.14341 4.72794 9.74275 4.85353 10.2993 5.09392C10.8559 5.33431 11.3582 5.68456 11.7761 6.12368L12.9199 7.31146L14.0637 6.12468C14.4817 5.68556 14.984 5.33531 15.5405 5.09492C16.0971 4.85453 16.6964 4.72894 17.3027 4.72567C17.9089 4.72241 18.5096 4.84153 19.0687 5.07591C19.6278 5.31029 20.1338 5.6551 20.5565 6.08969C22.3592 7.92235 22.3742 10.9088 20.5905 12.7605L12.9199 20.722L5.24933 12.7595C3.46566 10.9078 3.48066 7.92135 5.28332 6.08869Z" stroke="black" stroke-width="1.5"/>
</svg>
