<svg width="25" height="25" viewBox="0 0 25 25" fill="none" xmlns="http://www.w3.org/2000/svg">
<path d="M4.57288 5.55866C4.99556 5.12407 5.50161 4.77926 6.06072 4.54488C6.61983 4.3105 7.22049 4.19138 7.82673 4.19465C8.43296 4.19791 9.0323 4.3235 9.58885 4.56389C10.1454 4.80428 10.6477 5.15453 11.0657 5.59365L12.2095 6.78144L13.3533 5.59465C13.7712 5.15553 14.2735 4.80528 14.8301 4.56489C15.3866 4.3245 15.986 4.19891 16.5922 4.19565C17.1985 4.19238 17.7991 4.3115 18.3582 4.54588C18.9173 4.78026 19.4234 5.12507 19.8461 5.55966C21.6487 7.39232 21.6637 10.3788 19.8801 12.2304L12.2095 20.192L4.53888 12.2294C2.75521 10.3778 2.77021 7.39132 4.57288 5.55866Z" stroke="black" stroke-width="1.5"/>
</svg>
