<svg width="25" height="25" viewBox="0 0 25 25" fill="none" xmlns="http://www.w3.org/2000/svg">
<path d="M4.92346 5.61847C5.34615 5.18388 5.8522 4.83907 6.41131 4.60469C6.97041 4.37032 7.57107 4.25119 8.17731 4.25446C8.78355 4.25773 9.38289 4.38332 9.93944 4.62371C10.496 4.8641 10.9983 5.21435 11.4163 5.65347L12.5601 6.84125L13.7039 5.65447C14.1218 5.21534 14.6241 4.8651 15.1807 4.62471C15.7372 4.38432 16.3366 4.25873 16.9428 4.25546C17.549 4.25219 18.1497 4.37132 18.7088 4.60569C19.2679 4.84007 19.774 5.18488 20.1967 5.61947C21.9993 7.45214 22.0143 10.4386 20.2307 12.2902L12.5601 20.2518L4.88947 12.2893C3.10579 10.4376 3.12079 7.45114 4.92346 5.61847Z" stroke="black" stroke-width="1.5"/>
</svg>
