<svg width="25" height="25" viewBox="0 0 25 25" fill="none" xmlns="http://www.w3.org/2000/svg">
<path d="M4.92346 5.69904C5.34615 5.26445 5.8522 4.91964 6.41131 4.68526C6.97041 4.45088 7.57107 4.33176 8.17731 4.33503C8.78355 4.33829 9.38289 4.46388 9.93944 4.70427C10.496 4.94467 10.9983 5.29491 11.4163 5.73403L12.5601 6.92182L13.7039 5.73503C14.1218 5.29591 14.6241 4.94567 15.1807 4.70527C15.7372 4.46488 16.3366 4.33929 16.9428 4.33603C17.549 4.33276 18.1497 4.45188 18.7088 4.68626C19.2679 4.92064 19.774 5.26545 20.1967 5.70004C21.9993 7.5327 22.0143 10.5192 20.2307 12.3708L12.5601 20.3324L4.88947 12.3698C3.10579 10.5182 3.12079 7.5317 4.92346 5.69904Z" stroke="black" stroke-width="1.5"/>
</svg>
