<svg width="25" height="25" viewBox="0 0 25 25" fill="none" xmlns="http://www.w3.org/2000/svg">
<path d="M5.28332 5.55866C5.70601 5.12407 6.21206 4.77926 6.77117 4.54488C7.33028 4.3105 7.93094 4.19138 8.53717 4.19465C9.14341 4.19791 9.74275 4.3235 10.2993 4.56389C10.8559 4.80428 11.3582 5.15453 11.7761 5.59365L12.9199 6.78144L14.0637 5.59465C14.4817 5.15553 14.984 4.80528 15.5405 4.56489C16.0971 4.3245 16.6964 4.19891 17.3027 4.19565C17.9089 4.19238 18.5096 4.3115 19.0687 4.54588C19.6278 4.78026 20.1338 5.12507 20.5565 5.55966C22.3592 7.39232 22.3742 10.3788 20.5905 12.2304L12.9199 20.192L5.24933 12.2294C3.46566 10.3778 3.48066 7.39132 5.28332 5.55866Z" stroke="black" stroke-width="1.5"/>
</svg>
