<svg width="25" height="25" viewBox="0 0 25 25" fill="none" xmlns="http://www.w3.org/2000/svg">
<path d="M4.45161 5.38959C4.6836 5.15765 4.95902 4.97369 5.26212 4.84819C5.56522 4.7227 5.89008 4.65814 6.21813 4.6582H19.2073C19.8698 4.6582 20.5051 4.92138 20.9736 5.38983C21.442 5.85828 21.7052 6.49363 21.7052 7.15612V14.6499C21.7052 15.3124 21.442 15.9477 20.9736 16.4162C20.5051 16.8846 19.8698 17.1478 19.2073 17.1478H11.9204L7.2173 21.8509V17.1478H6.21813C5.55564 17.1478 4.92029 16.8846 4.45184 16.4162C3.98339 15.9477 3.72021 15.3124 3.72021 14.6499V7.15612C3.72015 6.82807 3.78471 6.50321 3.91021 6.20011C4.0357 5.89701 4.21967 5.62159 4.45161 5.38959ZM6.21813 5.65737C5.82064 5.65737 5.43943 5.81527 5.15836 6.09634C4.87728 6.37741 4.71938 6.75863 4.71938 7.15612V14.6499C4.71938 15.0474 4.87728 15.4286 5.15836 15.7096C5.43943 15.9907 5.82064 16.1486 6.21813 16.1486H8.21647V19.4389L11.5067 16.1486H19.2073C19.6048 16.1486 19.986 15.9907 20.2671 15.7096C20.5481 15.4286 20.706 15.0474 20.706 14.6499V7.15612C20.706 6.75863 20.5481 6.37741 20.2671 6.09634C19.986 5.81527 19.6048 5.65737 19.2073 5.65737H6.21813ZM8.71605 11.6524V10.1536H9.71522V11.6524H8.71605ZM12.2131 11.6524V10.1536H13.2123V11.6524H12.2131ZM15.7102 11.6524V10.1536H16.7094V11.6524H15.7102Z" fill="black"/>
</svg>
