<svg width="25" height="25" viewBox="0 0 25 25" fill="none" xmlns="http://www.w3.org/2000/svg">
<path d="M11.7022 5.42631C9.97978 5.42631 8.32785 6.11055 7.10988 7.32852C5.89191 8.5465 5.20766 10.1984 5.20766 11.9209C5.20766 13.6434 5.89191 15.2953 7.10988 16.5133C8.32785 17.7312 9.97978 18.4155 11.7022 18.4155C13.4247 18.4155 15.0766 17.7312 16.2946 16.5133C17.5126 15.2953 18.1968 13.6434 18.1968 11.9209C18.1968 10.1984 17.5126 8.5465 16.2946 7.32852C15.0766 6.11055 13.4247 5.42631 11.7022 5.42631ZM4.2085 11.9209C4.20849 10.7097 4.50208 9.51651 5.06412 8.44358C5.62615 7.37066 6.43988 6.44996 7.43561 5.76035C8.43134 5.07073 9.57939 4.63275 10.7814 4.48392C11.9835 4.33508 13.2037 4.47983 14.3375 4.90577C15.4714 5.33171 16.4851 6.02614 17.2918 6.92959C18.0986 7.83303 18.6743 8.91856 18.9697 10.0932C19.2651 11.2678 19.2714 12.4966 18.988 13.6742C18.7046 14.8518 18.14 15.9431 17.3425 16.8548L21.548 21.0593L20.8406 21.7667L16.6361 17.5612C15.5526 18.509 14.219 19.1247 12.7948 19.3346C11.3706 19.5444 9.91612 19.3397 8.60524 18.7447C7.29435 18.1498 6.18258 17.1898 5.40286 15.9797C4.62315 14.7696 4.2085 13.3605 4.2085 11.9209Z" fill="black" stroke="black"/>
</svg>
