<svg width="25" height="25" viewBox="0 0 25 25" fill="none" xmlns="http://www.w3.org/2000/svg">
<path d="M4.92346 6.19806C5.34615 5.76347 5.8522 5.41866 6.41131 5.18428C6.97041 4.94991 7.57107 4.83078 8.17731 4.83405C8.78355 4.83732 9.38289 4.96291 9.93944 5.2033C10.496 5.44369 10.9983 5.79393 11.4163 6.23306L12.5601 7.42084L13.7039 6.23406C14.1218 5.79493 14.6241 5.44469 15.1807 5.2043C15.7372 4.96391 16.3366 4.83832 16.9428 4.83505C17.549 4.83178 18.1497 4.9509 18.7088 5.18528C19.2679 5.41966 19.774 5.76447 20.1967 6.19906C21.9993 8.03173 22.0143 11.0182 20.2307 12.8698L12.5601 20.8314L4.88947 12.8688C3.10579 11.0172 3.12079 8.03073 4.92346 6.19806Z" stroke="black" stroke-width="1.5"/>
</svg>
