<svg width="25" height="25" viewBox="0 0 25 25" fill="none" xmlns="http://www.w3.org/2000/svg">
<path d="M5.28332 5.69806C5.70601 5.26347 6.21206 4.91866 6.77117 4.68428C7.33028 4.44991 7.93094 4.33078 8.53717 4.33405C9.14341 4.33732 9.74275 4.46291 10.2993 4.7033C10.8559 4.94369 11.3582 5.29393 11.7761 5.73306L12.9199 6.92084L14.0637 5.73406C14.4817 5.29493 14.984 4.94469 15.5405 4.7043C16.0971 4.46391 16.6964 4.33832 17.3027 4.33505C17.9089 4.33178 18.5096 4.4509 19.0687 4.68528C19.6278 4.91966 20.1338 5.26447 20.5565 5.69906C22.3592 7.53173 22.3742 10.5182 20.5905 12.3698L12.9199 20.3314L5.24933 12.3688C3.46566 10.5172 3.48066 7.53073 5.28332 5.69806Z" stroke="black" stroke-width="1.5"/>
</svg>
