<svg width="65" height="65" viewBox="0 0 65 65" fill="none" xmlns="http://www.w3.org/2000/svg">
<path d="M43.2488 13.8933C43.1825 13.962 43.1137 14.0473 43.0474 14.116L40.2465 16.9714L40.179 17.0402C40.1114 17.1255 40.1114 17.212 40.1955 17.3328C40.9 18.5335 41.3426 19.8696 41.4941 21.2534C41.7986 24.1076 41.0889 26.6692 39.3354 28.9227C37.833 30.848 35.8757 32.0506 33.531 32.5838C32.4516 32.8255 31.3545 32.842 30.2585 32.7224C28.4528 32.5328 26.8332 31.8622 25.3818 30.7615C23.2894 29.1798 21.9909 27.0827 21.4506 24.469C21.2492 23.5057 21.2148 22.5259 21.2989 21.5626C21.5015 19.3103 22.3451 17.315 23.8463 15.6125C25.2799 13.9786 27.0358 12.9135 29.1104 12.4312C30.1316 12.1847 31.1865 12.1091 32.2324 12.2073C33.7332 12.3367 35.186 12.8011 36.4835 13.5663C36.6518 13.6694 36.7205 13.6006 36.8212 13.4976L39.6055 10.6599C39.6719 10.5912 39.7394 10.5059 39.8247 10.4028L43.2476 13.8921L43.2488 13.8933ZM36.9195 22.6609C37.0037 19.3434 34.4397 16.9359 31.5535 16.8494C28.2976 16.7629 25.8688 19.5152 25.8688 22.4891C25.8688 25.5341 28.3829 28.1644 31.4018 28.1123C34.3722 28.1478 36.852 25.6526 36.9183 22.6621L36.9195 22.6609ZM41.1908 45.6357C41.2074 48.4212 41.1908 51.2244 41.1908 54.0099V54.3891H36.2975V54.0455C36.2975 51.1214 36.3153 48.1984 36.2975 45.2743C36.2975 43.7447 35.7762 42.4035 34.679 41.3372C33.9681 40.6433 33.049 40.202 32.063 40.0813C30.7478 39.8917 29.55 40.2199 28.4872 41.0279C27.4232 41.8526 26.8 42.971 26.5974 44.2945C26.4955 44.9307 26.4789 45.5847 26.4789 46.2376C26.4624 48.8347 26.4789 51.414 26.4789 54.0099V54.3713H21.62V54.0443C21.62 50.8974 21.5857 47.734 21.6366 44.5871C21.671 42.9189 22.1935 41.3372 23.0536 39.8929C24.4873 37.4853 26.5299 35.938 29.2123 35.3017C30.0584 35.1096 30.9259 35.0287 31.7928 35.0612C34.4764 35.1809 36.7702 36.2638 38.5937 38.31C39.8922 39.7886 40.7192 41.509 41.006 43.4864C41.1221 44.2068 41.1896 44.9283 41.1896 45.6333" fill="black"/>
</svg>
