<svg width="25" height="25" viewBox="0 0 25 25" fill="none" xmlns="http://www.w3.org/2000/svg">
<path d="M4.92346 5.55866C5.34615 5.12407 5.8522 4.77926 6.41131 4.54488C6.97041 4.3105 7.57107 4.19138 8.17731 4.19465C8.78355 4.19791 9.38289 4.3235 9.93944 4.56389C10.496 4.80428 10.9983 5.15453 11.4163 5.59365L12.5601 6.78144L13.7039 5.59465C14.1218 5.15553 14.6241 4.80528 15.1807 4.56489C15.7372 4.3245 16.3366 4.19891 16.9428 4.19565C17.549 4.19238 18.1497 4.3115 18.7088 4.54588C19.2679 4.78026 19.774 5.12507 20.1967 5.55966C21.9993 7.39232 22.0143 10.3788 20.2307 12.2304L12.5601 20.192L4.88947 12.2294C3.10579 10.3778 3.12079 7.39132 4.92346 5.55866Z" stroke="black" stroke-width="1.5"/>
</svg>
