<svg width="25" height="25" viewBox="0 0 25 25" fill="none" xmlns="http://www.w3.org/2000/svg">
<path d="M4.57288 6.08869C4.99556 5.6541 5.50161 5.30929 6.06072 5.07491C6.61983 4.84053 7.22049 4.72141 7.82673 4.72467C8.43296 4.72794 9.0323 4.85353 9.58885 5.09392C10.1454 5.33431 10.6477 5.68456 11.0657 6.12368L12.2095 7.31146L13.3533 6.12468C13.7712 5.68556 14.2735 5.33531 14.8301 5.09492C15.3866 4.85453 15.986 4.72894 16.5922 4.72567C17.1985 4.72241 17.7991 4.84153 18.3582 5.07591C18.9173 5.31029 19.4234 5.6551 19.8461 6.08969C21.6487 7.92235 21.6637 10.9088 19.8801 12.7605L12.2095 20.722L4.53888 12.7595C2.75521 10.9078 2.77021 7.92135 4.57288 6.08869Z" stroke="black" stroke-width="1.5"/>
</svg>
