<svg width="25" height="25" viewBox="0 0 25 25" fill="none" xmlns="http://www.w3.org/2000/svg">
<path d="M4.57288 6.16974C4.99556 5.73515 5.50161 5.39034 6.06072 5.15596C6.61983 4.92158 7.22049 4.80246 7.82673 4.80573C8.43296 4.809 9.0323 4.93459 9.58885 5.17498C10.1454 5.41537 10.6477 5.76561 11.0657 6.20474L12.2095 7.39252L13.3533 6.20574C13.7712 5.76661 14.2735 5.41637 14.8301 5.17598C15.3866 4.93559 15.986 4.81 16.5922 4.80673C17.1985 4.80346 17.7991 4.92258 18.3582 5.15696C18.9173 5.39134 19.4234 5.73615 19.8461 6.17074C21.6487 8.00341 21.6637 10.9899 19.8801 12.8415L12.2095 20.8031L4.53888 12.8405C2.75521 10.9889 2.77021 8.00241 4.57288 6.16974Z" stroke="black" stroke-width="1.5"/>
</svg>
