<svg width="25" height="25" viewBox="0 0 25 25" fill="none" xmlns="http://www.w3.org/2000/svg">
<path d="M19.2344 10.507C18.3742 10.5892 17.5095 10.4061 16.7565 9.98247C16.1142 9.61981 15.5726 9.1026 15.1808 8.47773V15.4599C15.1824 16.4761 14.8921 17.4715 14.3445 18.3275C13.8073 19.1688 13.031 19.8306 12.1153 20.2279C11.2116 20.6182 10.2097 20.7208 9.24572 20.5217C8.27486 20.3184 7.38833 19.8258 6.70284 19.1089C6.00842 18.3875 5.53581 17.4682 5.34397 16.4671C5.15213 15.4659 5.25105 14.4288 5.62674 13.4856C5.99592 12.5509 6.63179 11.7455 7.45521 11.1695C8.26479 10.6048 9.22784 10.3014 10.2149 10.3002C10.3188 10.3002 10.4197 10.3092 10.5217 10.3162V12.8591C10.4197 12.8461 10.3198 12.8271 10.2149 12.8271C9.87957 12.8282 9.54791 12.8971 9.23988 13.0297C8.93184 13.1623 8.65378 13.3557 8.42241 13.5985C7.94399 14.1003 7.67801 14.7676 7.68003 15.4609C7.68003 16.1593 7.9468 16.8298 8.42241 17.3234C8.65378 17.5661 8.93184 17.7596 9.23988 17.8921C9.54791 18.0247 9.87957 18.0936 10.2149 18.0947C11.6147 18.0947 12.8517 16.9487 12.8517 15.4929L12.8757 3.63477H15.2177C15.3207 4.68384 15.7806 5.6658 16.5207 6.41645C17.2444 7.15087 18.2085 7.59994 19.2364 7.68139V10.507" fill="black"/>
</svg>
