<svg width="25" height="25" viewBox="0 0 25 25" fill="none" xmlns="http://www.w3.org/2000/svg">
<path d="M4.61877 5.48322C5.04146 5.04863 5.54751 4.70382 6.10662 4.46944C6.66573 4.23506 7.26639 4.11594 7.87262 4.11921C8.47886 4.12247 9.0782 4.24806 9.63475 4.48845C10.1913 4.72885 10.6936 5.07909 11.1116 5.51821L12.2554 6.706L13.3992 5.51921C13.8171 5.08009 14.3194 4.72984 14.876 4.48945C15.4325 4.24906 16.0319 4.12347 16.6381 4.12021C17.2444 4.11694 17.845 4.23606 18.4041 4.47044C18.9632 4.70482 19.4693 5.04963 19.892 5.48422C21.6946 7.31688 21.7096 10.3033 19.926 12.155L12.2554 20.1165L4.58478 12.154C2.80111 10.3023 2.8161 7.31588 4.61877 5.48322Z" stroke="black" stroke-width="1.5"/>
</svg>
