<svg width="25" height="25" viewBox="0 0 25 25" fill="none" xmlns="http://www.w3.org/2000/svg">
<path d="M16.3951 3.63477H8.27292C5.56518 3.63477 3.31006 5.88289 3.31006 8.58064V16.6099C3.31006 19.3716 5.56618 21.6198 8.27292 21.6198H16.3302C17.6444 21.6222 18.9057 21.1024 19.8368 20.1749C20.7679 19.2474 21.2924 17.9881 21.2951 16.6739V8.58064C21.358 5.88289 19.1019 3.63477 16.3951 3.63477ZM19.7464 16.6739C19.7464 18.5363 18.1996 20.0141 16.3951 20.0141H8.27292C7.38707 20.0107 6.53831 19.658 5.91089 19.0327C5.28347 18.4073 4.92802 17.5597 4.92171 16.6739V8.58064C4.92171 6.71819 6.46842 5.24043 8.27292 5.24043H16.3302C17.2162 5.24356 18.0652 5.5961 18.6929 6.2215C19.3205 6.84689 19.6761 7.69464 19.6824 8.58064L19.7464 16.6739ZM12.3345 8.00212C11.7252 7.9983 11.1212 8.11518 10.5573 8.34604C9.99344 8.5769 9.48086 8.91715 9.04918 9.34716C8.6175 9.77717 8.27526 10.2884 8.04222 10.8514C7.80917 11.4144 7.68994 12.018 7.6914 12.6273C7.68981 13.2364 7.80888 13.8399 8.04176 14.4028C8.27463 14.9657 8.61668 15.4769 9.04818 15.907C9.47968 16.337 9.99207 16.6773 10.5558 16.9082C11.1195 17.1391 11.7234 17.2561 12.3325 17.2524C12.9419 17.2562 13.5459 17.1393 14.1098 16.9084C14.6737 16.6775 15.1863 16.3371 15.6179 15.907C16.0495 15.4768 16.3916 14.9655 16.6245 14.4024C16.8574 13.8393 16.9764 13.2356 16.9747 12.6263C16.976 12.0171 16.8567 11.4138 16.6237 10.8509C16.3906 10.2881 16.0484 9.77706 15.6169 9.34717C15.1853 8.91727 14.6729 8.57709 14.1092 8.34624C13.5455 8.11538 12.9417 7.99843 12.3325 8.00212H12.3345ZM12.3345 15.6457C11.9373 15.6469 11.5437 15.5697 11.1763 15.4186C10.809 15.2675 10.475 15.0453 10.1936 14.765C9.91222 14.4846 9.68888 14.1514 9.53641 13.7846C9.38394 13.4178 9.30532 13.0245 9.30506 12.6273C9.30532 12.2301 9.38391 11.8369 9.53632 11.4701C9.68873 11.1034 9.91197 10.7703 10.1933 10.4899C10.4746 10.2096 10.8084 9.98741 11.1757 9.83621C11.5429 9.68502 11.9364 9.60773 12.3335 9.60878C12.7307 9.6076 13.1242 9.68476 13.4915 9.83583C13.8588 9.98691 14.1927 10.2089 14.4741 10.4892C14.7555 10.7695 14.9788 11.1025 15.1314 11.4692C15.2839 11.8359 15.3626 12.2291 15.363 12.6263C15.3629 13.0236 15.2844 13.417 15.1319 13.7839C14.9795 14.1509 14.7562 14.4841 14.4748 14.7646C14.1934 15.0451 13.8594 15.2673 13.492 15.4185C13.1245 15.5697 12.7319 15.6469 12.3345 15.6457ZM17.1685 6.65325C16.8458 6.65325 16.588 6.78314 16.3292 6.97498C16.1364 7.16782 16.0075 7.48855 16.0075 7.81028C16.0075 8.13102 16.1374 8.3878 16.3302 8.64459C16.523 8.83743 16.8458 8.96632 17.1685 8.96632C17.4902 8.96632 17.748 8.83643 18.0058 8.64459C18.1996 8.45175 18.3285 8.13102 18.3285 7.81028C18.3285 7.48855 18.1986 7.16782 18.0058 6.97498C17.813 6.78214 17.4902 6.65325 17.1685 6.65325Z" fill="black"/>
</svg>
