<svg width="25" height="25" viewBox="0 0 25 25" fill="none" xmlns="http://www.w3.org/2000/svg">
<path fill-rule="evenodd" clip-rule="evenodd" d="M9.71927 3.9525C10.2083 3.46337 10.8315 3.13027 11.5099 2.99531C12.1883 2.86035 12.8915 2.92961 13.5305 3.19432C14.1696 3.45902 14.7157 3.90729 15.1 4.48243C15.4843 5.05757 15.6893 5.73374 15.6893 6.42544V7.92419H21.1847V17.4163C21.1847 18.4763 20.7636 19.4928 20.0141 20.2423C19.2646 20.9919 18.248 21.4129 17.188 21.4129H7.19637C6.13639 21.4129 5.11982 20.9919 4.3703 20.2423C3.62078 19.4928 3.19971 18.4763 3.19971 17.4163V7.92419H8.69512V6.42544C8.69509 5.96618 8.78552 5.51142 8.96124 5.08711C9.13696 4.6628 9.39454 4.27726 9.71927 3.9525ZM8.69512 8.92335V11.9209H9.69429V8.92335H14.6901V11.9209H15.6893V8.92335H20.1855V17.4163C20.1855 18.2113 19.8697 18.9737 19.3076 19.5358C18.7455 20.098 17.983 20.4138 17.188 20.4138H7.19637C6.40139 20.4138 5.63896 20.098 5.07682 19.5358C4.51468 18.9737 4.19887 18.2113 4.19887 17.4163V8.92335H8.69512ZM14.6901 7.92419H9.69429V6.42544C9.69429 5.76295 9.95746 5.12759 10.4259 4.65914C10.8944 4.19069 11.5297 3.92752 12.1922 3.92752C12.8547 3.92752 13.4901 4.19069 13.9585 4.65914C14.427 5.12759 14.6901 5.76295 14.6901 6.42544V7.92419Z" fill="black" stroke="black"/>
</svg>
